<?xml version="1.0" standalone="no"?>
<!DOCTYPE svg PUBLIC "-//W3C//DTD SVG 20010904//EN"
 "http://www.w3.org/TR/2001/REC-SVG-20010904/DTD/svg10.dtd">
<svg version="1.0" xmlns="http://www.w3.org/2000/svg"
 width="1080.000000pt" height="1080.000000pt" viewBox="0 0 1080.000000 1080.000000"
 preserveAspectRatio="xMidYMid meet">
<metadata>
Created by potrace 1.14, written by Peter Selinger 2001-2017
</metadata>
<g transform="translate(0.000000,1080.000000) scale(0.100000,-0.100000)"
fill="#000000" stroke="none">
<path d="M8410 7753 c-176 -31 -341 -99 -510 -211 -119 -79 -308 -270 -392
-397 -70 -105 -153 -265 -183 -350 -9 -27 -21 -59 -26 -70 -12 -28 -57 -203
-63 -245 -3 -19 -10 -69 -17 -110 -13 -85 -17 -337 -6 -450 20 -221 79 -437
167 -611 54 -107 72 -138 135 -224 264 -359 683 -561 1140 -550 270 7 494 90
644 238 l58 58 64 -128 64 -128 458 -2 c389 -1 459 1 464 13 3 8 6 258 7 557
l1 542 82 0 c45 0 84 3 88 7 9 9 10 486 2 495 -8 7 -1506 7 -1513 0 -8 -8 -7
-487 0 -495 4 -3 64 -7 134 -7 l127 0 3 -75 c4 -99 1 -108 -56 -167 -83 -87
-177 -123 -332 -128 -243 -8 -434 123 -542 370 -87 198 -106 483 -48 705 60
233 202 426 369 502 143 65 320 52 453 -33 136 -88 233 -273 237 -452 l1 -37
418 2 417 3 3 668 c2 530 0 667 -10 668 -7 1 -163 2 -346 3 -289 1 -335 -1
-342 -14 -4 -8 -25 -71 -45 -140 -20 -69 -39 -129 -42 -133 -3 -4 -32 22 -65
57 -62 68 -167 144 -253 184 -61 29 -199 69 -263 78 -26 3 -56 8 -67 11 -55
13 -335 10 -415 -4z"/>
<path d="M157 7712 c-9 -2 -17 -11 -18 -20 0 -9 -1 -142 -2 -294 -2 -223 1
-279 11 -283 8 -3 67 -5 133 -5 l119 0 0 -965 0 -965 -122 0 c-68 0 -128 -4
-134 -8 -15 -9 -17 -571 -2 -589 13 -17 1383 -16 1397 0 9 12 14 547 5 580 -5
15 -22 17 -173 17 l-168 0 0 521 c0 504 1 520 18 498 22 -29 390 -573 404
-597 6 -9 12 -19 15 -22 3 -3 51 -72 106 -155 56 -82 161 -238 234 -345 72
-107 179 -265 237 -351 l105 -157 488 0 c366 -1 491 2 498 11 6 7 9 501 8
1270 l-1 1257 142 0 c84 0 144 4 148 10 9 14 9 580 0 588 -12 12 -1357 8
-1369 -4 -13 -13 -15 -561 -3 -581 6 -10 48 -13 153 -13 l144 0 1 -32 c3 -138
0 -940 -3 -944 -3 -2 -19 17 -35 43 -28 45 -153 229 -544 808 -86 127 -227
336 -314 465 -86 129 -164 242 -172 250 -12 13 -98 15 -651 15 -351 0 -645 -1
-655 -3z"/>
<path d="M3910 7712 c-7 -3 -10 -205 -10 -587 0 -547 1 -585 18 -593 28 -14
661 -9 670 5 4 7 7 130 6 275 0 145 3 268 7 273 6 8 299 13 342 6 4 0 7 -427
7 -948 l0 -948 -182 0 -183 0 -3 -304 c-2 -232 1 -306 10 -312 13 -8 1652 -11
1679 -3 15 4 17 35 17 297 1 161 -1 299 -4 308 -4 14 -26 16 -172 15 -92 -1
-174 1 -182 5 -13 6 -15 119 -15 942 0 515 4 939 8 944 5 4 82 8 173 8 l164 0
0 -282 c0 -219 3 -283 13 -284 61 -6 670 -2 674 4 8 13 6 1167 -2 1175 -6 7
-3015 10 -3035 4z"/>
<path d="M1699 4155 c-83 -20 -159 -85 -202 -170 -25 -50 -40 -144 -33 -216
14 -159 116 -276 259 -295 54 -8 137 11 170 37 24 18 24 18 35 -6 11 -24 15
-25 112 -25 l100 0 0 120 c0 110 2 120 19 120 15 0 18 8 17 53 l-1 52 -160 0
-160 0 -1 -52 c0 -53 4 -59 44 -54 7 1 12 -9 12 -23 0 -18 -9 -30 -30 -41 -84
-44 -163 11 -177 124 -14 122 51 212 147 202 23 -3 70 -59 76 -91 l6 -29 87 2
86 2 2 143 c1 139 1 142 -20 143 -12 0 -46 1 -75 2 -50 2 -52 1 -63 -30 l-10
-31 -26 24 c-45 42 -138 59 -214 39z"/>
<path d="M9258 4159 c-90 -21 -156 -100 -159 -189 -5 -121 57 -180 249 -239
110 -34 131 -52 94 -81 -50 -41 -172 3 -172 61 0 15 -10 17 -92 16 l-93 -2 0
-120 0 -120 88 -3 c72 -2 87 0 88 13 3 30 4 35 11 38 4 1 15 -5 25 -13 95 -80
294 -66 376 25 40 44 56 123 37 179 -23 70 -91 119 -220 161 -63 20 -132 53
-141 67 -11 17 2 45 24 55 53 24 123 -10 142 -68 l12 -34 86 0 87 0 1 30 c6
235 12 219 -78 218 -96 -2 -93 -1 -93 -27 0 -29 -18 -44 -26 -22 -3 8 -27 26
-53 39 -52 25 -129 32 -193 16z"/>
<path d="M10032 4153 c-88 -31 -150 -125 -139 -212 14 -107 77 -160 255 -212
40 -11 82 -29 94 -38 l21 -18 -22 -20 c-45 -42 -152 -13 -172 47 l-10 28 -87
-1 -87 -2 -3 -123 -3 -123 88 3 c88 3 88 3 93 31 l5 29 27 -21 c45 -36 98 -53
167 -53 125 0 232 64 246 147 3 16 7 42 9 57 6 39 -32 107 -80 144 -23 17 -88
47 -145 68 -120 43 -149 59 -149 85 0 51 93 61 140 16 15 -15 30 -39 33 -54 6
-26 6 -27 94 -26 l88 0 1 118 c1 72 -3 120 -9 124 -6 3 -25 6 -44 6 -18 -1
-53 -2 -78 -2 -43 -1 -45 -2 -45 -31 0 -16 -2 -30 -4 -30 -2 0 -17 12 -34 28
-55 51 -163 66 -250 35z"/>
<path d="M288 4152 c-27 -3 -28 -5 -28 -66 0 -62 1 -64 28 -69 l28 -6 1 -198
0 -199 -28 2 -29 2 0 -69 0 -69 180 0 c137 0 180 3 181 13 0 6 1 37 1 67 l1
55 -50 0 -49 -1 1 56 1 55 84 0 c97 0 97 0 95 84 l-1 53 -89 2 -90 1 0 75 0
75 68 2 67 1 0 -45 0 -44 88 3 87 3 2 108 1 107 -26 1 c-93 3 -502 3 -524 1z"/>
<path d="M1009 4152 c-24 -3 -25 -6 -25 -63 1 -62 13 -81 45 -72 15 4 16 -15
16 -199 l0 -203 -23 -1 c-12 -1 -26 -2 -30 -3 -4 0 -8 -30 -7 -66 l0 -65 162
0 163 0 0 65 c0 45 -4 65 -12 67 -7 0 -20 1 -28 2 -13 1 -15 30 -15 201 l0
200 28 3 c26 3 27 5 27 68 0 63 0 64 -27 64 -16 0 -77 2 -138 3 -60 1 -122 1
-136 -1z"/>
<path d="M2370 4150 l-45 -5 0 -59 c0 -50 3 -60 20 -66 11 -4 23 -6 26 -4 3 2
6 -87 6 -196 0 -200 -1 -205 -34 -201 -14 2 -14 1 -17 -81 l-2 -58 158 0 158
0 0 68 c0 68 0 68 -27 68 -28 -1 -28 0 -29 67 l0 67 83 0 83 0 1 -37 c0 -21 2
-50 3 -65 2 -27 -5 -32 -41 -31 -12 1 -15 -19 -15 -87 0 -53 -9 -51 159 -48
l158 3 0 63 c1 36 -3 62 -9 63 -6 1 -18 2 -26 3 -13 1 -15 32 -18 204 -2 189
-1 203 15 202 35 -4 38 1 38 65 l1 65 -56 1 c-106 2 -254 -2 -259 -7 -2 -2 -5
-31 -5 -64 -1 -59 -1 -60 27 -60 29 0 27 3 30 -83 0 -19 -3 -38 -6 -44 -4 -7
-38 -10 -85 -10 l-77 2 -2 66 c-1 66 -1 66 25 65 26 -1 27 0 30 67 2 49 0 67
-10 68 -96 3 -222 3 -258 -1z"/>
<path d="M3198 4152 l-38 -3 0 -125 c0 -75 4 -124 10 -125 6 -1 26 -1 45 -1
99 0 95 -2 94 45 -2 72 -2 73 36 75 l35 3 0 -203 0 -204 -37 1 -38 0 -1 -68
-2 -67 182 2 181 3 0 50 c1 77 -2 83 -41 79 -32 -3 -34 -1 -34 27 0 16 -1 103
-1 194 0 91 1 169 1 174 0 4 15 8 33 7 32 -1 32 -1 33 -54 1 -29 4 -55 7 -59
10 -10 129 -8 135 2 4 6 7 63 7 128 l1 117 -86 1 c-355 3 -490 4 -522 1z"/>
<path d="M5467 4152 c-14 -3 -17 -16 -17 -68 0 -66 3 -70 47 -65 8 1 11 -52
10 -201 -2 -173 -4 -203 -17 -204 -8 -1 -21 -2 -27 -2 -9 -2 -13 -22 -13 -67
l0 -65 180 0 181 0 -3 68 -3 67 -45 0 -45 0 0 55 1 55 64 2 c130 3 116 -6 115
69 l-1 67 -89 1 -90 1 0 76 0 76 67 1 68 1 0 -45 0 -44 85 0 c47 0 86 3 86 8
1 4 2 53 3 110 l2 102 -26 0 c-275 4 -520 4 -533 2z"/>
<path d="M6177 4140 c-2 -8 -3 -37 -3 -65 1 -47 3 -50 29 -53 15 -2 28 -6 28
-10 4 -25 4 -385 -1 -391 -3 -5 -16 -8 -30 -7 -24 1 -25 -1 -25 -64 l0 -65
161 -3 161 -2 1 65 c0 49 -3 65 -14 66 -8 1 -20 2 -26 3 -10 1 -14 51 -16 204
-2 160 0 203 10 201 42 -5 45 0 46 66 0 42 -4 65 -11 66 -7 0 -78 1 -159 2
-123 2 -148 0 -151 -13z"/>
<path d="M6678 4152 l-28 -3 0 -127 0 -127 57 2 c32 1 66 2 75 2 14 1 18 10
17 44 -2 75 -2 75 36 75 l35 0 0 -203 0 -204 -27 3 c-47 5 -52 -1 -51 -70 l1
-64 181 2 181 3 0 63 c1 34 -2 63 -7 63 -4 1 -23 2 -40 3 l-33 1 0 193 c0 106
2 198 6 203 3 6 19 9 35 7 28 -3 29 -5 31 -57 1 -29 4 -55 6 -58 10 -9 129 -8
135 2 12 18 8 237 -3 242 -13 5 -568 9 -607 5z"/>
<path d="M7474 4152 l-31 -3 1 -62 c2 -60 3 -62 29 -65 l27 -3 0 -205 0 -204
-28 0 c-28 0 -28 0 -27 -62 l1 -63 149 -3 150 -2 1 65 0 65 -38 0 -38 0 0 105
c0 58 2 105 4 105 2 0 55 -76 117 -170 l114 -170 106 0 106 0 1 253 c0 138 1
260 1 270 1 12 9 17 31 17 l30 0 0 64 c0 62 -1 64 -27 67 -16 2 -82 2 -148 -1
l-120 -5 0 -62 0 -63 32 0 33 0 0 -102 0 -103 -112 168 c-95 142 -115 167
-137 168 -90 3 -200 4 -227 1z"/>
<path d="M8392 4152 l-53 -3 3 -67 c3 -64 4 -67 28 -67 l25 0 1 -200 2 -201
-29 2 -29 2 0 -69 0 -69 290 0 290 0 0 110 0 110 -27 1 c-107 4 -126 3 -134
-2 -5 -3 -11 -23 -12 -45 l-2 -39 -60 0 c-33 -1 -65 0 -70 2 -6 2 -10 33 -10
71 l0 67 90 5 90 5 0 65 0 65 -90 0 -91 0 1 61 0 61 70 -1 70 -1 2 -30 c0 -16
2 -36 2 -42 1 -9 25 -13 86 -13 l85 0 0 110 0 110 -42 0 c-24 1 -131 2 -238 3
-107 1 -219 1 -248 -1z"/>
<path d="M4516 4097 c-71 -40 -97 -113 -70 -194 l15 -45 -45 -41 c-119 -110
-106 -278 27 -337 53 -24 161 -24 215 0 37 17 43 17 84 3 40 -15 46 -15 81 2
31 15 67 57 67 80 0 3 -13 5 -29 5 -35 0 -65 26 -55 49 3 9 9 24 11 34 5 15
26 21 71 20 12 -1 14 13 16 107 l1 45 -80 3 -81 2 -2 -46 c-2 -54 -10 -84 -21
-84 -4 0 -23 23 -41 51 -32 50 -33 52 -14 65 68 49 110 123 101 180 -17 104
-152 158 -251 101z m129 -87 c7 -22 -18 -66 -47 -81 -15 -8 -20 -6 -27 13 -8
22 -6 62 5 80 3 4 18 8 34 8 20 0 31 -6 35 -20z m-105 -289 c0 -5 19 -37 41
-71 47 -70 44 -80 -25 -80 -47 0 -86 31 -86 68 0 31 37 92 56 92 8 0 14 -4 14
-9z"/>
<path d="M170 3165 l0 -105 5190 0 5190 0 0 105 0 105 -5190 0 -5190 0 0 -105z"/>
</g>
</svg>
